<svg width="27" height="24" viewBox="0 0 27 24" fill="none" xmlns="http://www.w3.org/2000/svg">
<path d="M24.0526 2.94738C23.4429 2.33737 22.719 1.85347 21.9222 1.52331C21.1254 1.19316 20.2713 1.02323 19.4089 1.02323C18.5464 1.02323 17.6923 1.19316 16.8955 1.52331C16.0987 1.85347 15.3748 2.33737 14.7651 2.94738L13.4997 4.21278L12.2343 2.94738C11.0027 1.71578 9.33227 1.02387 7.59052 1.02387C5.84876 1.02387 4.17835 1.71578 2.94675 2.94738C1.71514 4.17899 1.02323 5.8494 1.02323 7.59115C1.02323 9.33291 1.71514 11.0033 2.94675 12.2349L4.21214 13.5003L13.4997 22.7879L22.7872 13.5003L24.0526 12.2349C24.6626 11.6252 25.1465 10.9013 25.4767 10.1045C25.8068 9.30767 25.9768 8.45364 25.9768 7.59115C25.9768 6.72867 25.8068 5.87463 25.4767 5.07784C25.1465 4.28105 24.6626 3.55711 24.0526 2.94738Z" stroke="#F1F0EE" stroke-width="2" stroke-linecap="round" stroke-linejoin="round"/>
</svg>
